<?xml version="1.0" standalone="no"?>
<!DOCTYPE svg PUBLIC "-//W3C//DTD SVG 20010904//EN"
 "http://www.w3.org/TR/2001/REC-SVG-20010904/DTD/svg10.dtd">
<svg version="1.0" xmlns="http://www.w3.org/2000/svg"
 width="1280.000000pt" height="1280.000000pt" viewBox="0 0 1280.000000 1280.000000"
 preserveAspectRatio="xMidYMid meet">
<metadata>
Created by potrace 1.15, written by Peter Selinger 2001-2017
</metadata>
<g transform="translate(0.000000,1280.000000) scale(0.100000,-0.100000)"
fill="#000000" stroke="none">
<path d="M3 12753 c3 -27 56 -532 118 -1123 l114 -1074 2327 -2225 c1281
-1224 2328 -2228 2328 -2231 0 -7 -1187 -1333 -1203 -1344 -10 -6 -165 105
-545 393 -292 220 -536 401 -541 401 -10 0 -739 -823 -747 -844 -3 -8 213
-115 646 -321 357 -169 650 -311 650 -314 0 -3 -17 -25 -38 -47 -27 -28 -56
-47 -93 -59 -35 -11 -77 -38 -119 -73 -36 -31 -66 -56 -67 -57 -1 0 4 -24 11
-53 l14 -52 -79 -88 c-77 -87 -80 -89 -141 -102 -58 -12 -68 -18 -124 -76
l-62 -62 10 -51 9 -50 -75 -95 -75 -94 -72 -9 -72 -8 -59 -67 -60 -67 16 -53
16 -53 -77 -75 c-74 -72 -82 -76 -154 -93 -69 -16 -81 -23 -129 -72 l-53 -54
15 -54 16 -55 -59 -75 -59 -76 -69 -7 c-66 -6 -71 -8 -134 -65 -36 -33 -68
-59 -71 -59 -3 0 -183 135 -400 300 -218 165 -399 300 -403 300 -11 -1 -508
-750 -508 -766 0 -7 135 -111 300 -230 165 -120 302 -219 304 -221 3 -2 -43
-101 -100 -221 l-105 -217 654 -473 654 -472 214 130 c117 71 217 130 222 130
5 0 143 -97 307 -216 163 -118 301 -214 305 -212 14 5 679 542 680 549 0 3
-166 131 -369 285 -273 207 -363 280 -347 282 11 2 49 31 84 65 58 57 62 65
62 107 1 43 6 51 92 148 l92 102 71 0 71 0 46 62 c33 47 47 76 52 113 6 45 13
57 82 126 l76 76 80 6 c78 6 81 7 139 58 l60 52 -7 66 -6 66 68 61 c83 73 92
78 169 94 51 11 68 21 118 69 l59 56 -6 56 -5 56 95 84 c88 78 99 85 165 100
63 15 77 23 125 70 51 51 54 56 54 104 0 42 5 56 26 75 l25 24 142 -144 c79
-80 281 -287 449 -460 l306 -314 393 388 c217 213 394 392 394 398 0 5 -227
166 -505 358 -278 191 -505 349 -505 351 0 7 1108 1064 1115 1064 9 0 1104
-1047 1108 -1060 2 -6 -223 -166 -500 -357 -277 -190 -503 -351 -503 -356 0
-6 177 -185 394 -398 l393 -388 306 314 c168 173 370 380 449 460 l142 144 25
-24 c21 -19 26 -33 26 -75 0 -48 3 -53 54 -104 48 -47 62 -55 125 -70 66 -15
77 -22 165 -100 l95 -84 -5 -56 -6 -56 59 -56 c50 -48 67 -58 118 -69 77 -16
86 -21 169 -94 l68 -61 -6 -66 -7 -66 60 -52 c58 -51 61 -52 139 -58 l80 -6
76 -76 c69 -69 76 -81 82 -126 5 -37 19 -66 52 -112 l46 -63 71 0 71 0 92
-102 c86 -97 91 -105 92 -148 0 -42 4 -50 63 -107 34 -34 72 -63 83 -65 16 -2
-74 -75 -347 -282 -203 -154 -369 -282 -369 -285 1 -7 666 -544 680 -549 4 -2
142 94 305 212 164 119 302 216 307 216 5 0 105 -59 222 -130 l214 -130 654
472 654 473 -105 217 c-57 120 -103 219 -100 221 2 2 139 101 304 221 165 119
300 223 300 230 0 16 -497 765 -508 766 -4 0 -185 -135 -403 -300 -217 -165
-397 -300 -400 -300 -3 0 -35 26 -71 59 -63 57 -68 59 -134 65 l-69 7 -59 76
-59 75 16 55 15 54 -53 54 c-48 49 -60 56 -129 72 -72 17 -80 21 -154 93 l-77
75 16 53 16 53 -60 67 -59 67 -72 8 -72 9 -75 94 -75 95 9 50 10 51 -62 62
c-56 58 -66 64 -124 76 -61 13 -64 15 -141 102 l-79 88 14 52 c7 29 12 53 11
53 -1 1 -31 26 -67 57 -42 35 -84 62 -119 73 -37 12 -66 31 -93 59 -21 22 -38
44 -38 47 0 3 293 145 650 314 433 206 649 313 646 321 -8 21 -737 844 -747
844 -5 0 -249 -181 -541 -401 -380 -288 -535 -399 -545 -393 -16 11 -1203
1337 -1203 1344 0 3 1047 1007 2328 2230 l2327 2226 118 1118 c65 615 116
1121 113 1124 -3 3 -589 -170 -1301 -384 l-1295 -388 -1343 -1501 c-739 -825
-1592 -1778 -1896 -2117 -305 -340 -557 -618 -561 -618 -4 0 -256 278 -561
618 -304 339 -1157 1292 -1896 2117 l-1343 1501 -1292 387 c-711 213 -1297
388 -1302 387 -5 0 -6 -21 -3 -47z"/>
</g>
</svg>
